<?xml version="1.0" encoding="windows-1252"?>
<!-- Uploaded to: SVG Repo, www.svgrepo.com, Generator: SVG Repo Mixer Tools -->
<svg height="800px" width="800px" version="1.1" id="Layer_1" xmlns="http://www.w3.org/2000/svg" xmlns:xlink="http://www.w3.org/1999/xlink" viewBox="0 0 496.158 496.158" xml:space="preserve">
<path style="fill:#6BBBC1;" d="M248.082,0.003C111.07,0.003,0,111.063,0,248.085c0,137.001,111.07,248.07,248.082,248.07  c137.006,0,248.076-111.069,248.076-248.07C496.158,111.062,385.088,0.003,248.082,0.003z"/>
<path style="fill:#ADDDE9;" d="M248.082,0.003c-102.975,0-191.289,62.736-228.816,152.076h457.627  C439.365,62.739,351.052,0.003,248.082,0.003z"/>
<path style="fill:#61994D;" d="M248.079,207.37c-105.753,0-191.48,47.644-191.48,106.417c0,58.771,85.728,106.417,191.48,106.417  c27.993,0,54.585-3.338,78.554-9.339c30.897-7.734,15.612-59.243,25.86-67.529c10.248-8.287,87.066-6.391,87.066-29.549  C439.559,255.014,353.832,207.37,248.079,207.37z"/>
<g>
	<path style="fill:#E8E3D1;" d="M315.283,267.969c-54.041,0.693-100.629,22.77-100.795,30.473   c-0.164,7.705,40.854,28.654,94.894,27.961c54.037-0.692,98.03-23.471,100.792-30.473   C412.934,288.93,369.318,267.275,315.283,267.969z"/>
	<path style="fill:#E8E3D1;" d="M174.509,267.969c-54.035-0.693-97.651,20.961-94.891,27.961   c2.762,7.002,46.755,29.78,100.792,30.473c54.04,0.693,95.058-20.256,94.894-27.961   C275.138,290.738,228.55,268.662,174.509,267.969z"/>
	<path style="fill:#E8E3D1;" d="M250.134,206.123c-19.961-50.368-79.605-81.361-92.238-75.759   c-12.632,5.604-39.916,56.271-19.958,106.638c19.961,50.369,77.205,79.262,92.242,75.759   C245.213,309.258,270.098,256.49,250.134,206.123z"/>
	<path style="fill:#E8E3D1;" d="M326.733,127.006c-14.312-0.071-67.205,33.709-78.354,85.932   c-11.149,52.226,22.749,100.313,37.975,103.183c15.225,2.872,67.201-33.708,78.354-85.931   C375.858,177.967,341.041,127.076,326.733,127.006z"/>
</g>
<path style="fill:#E0DCCE;" d="M305.721,190.282c-1.387-53.031-47.521-97.226-61.568-94.95c-14.047,2.274-57.941,44.06-56.559,97.09  c1.386,53.032,45.963,94.631,61.568,94.949C264.768,287.693,307.106,243.312,305.721,190.282z"/>
<g>
	<path style="fill:#F4E028;" d="M249.539,202.308c-10.592-32.072-42.246-51.809-48.949-48.24   c-6.702,3.568-21.18,35.831-10.586,67.904c10.59,32.072,40.969,50.473,48.945,48.241   C246.93,267.982,260.134,234.381,249.539,202.308z"/>
	<path style="fill:#F4E028;" d="M290.188,151.93c-7.595-0.045-35.664,21.465-41.58,54.72c-5.917,33.255,12.071,63.877,20.152,65.704   c8.08,1.827,35.661-21.465,41.578-54.719C316.256,184.378,297.783,151.975,290.188,151.93z"/>
	<path style="fill:#F4E028;" d="M279.038,195.087c-0.735-33.77-25.218-61.911-32.673-60.462   c-7.453,1.449-30.747,28.057-30.013,61.826c0.732,33.768,24.39,60.258,32.671,60.46   C257.308,257.116,279.773,228.855,279.038,195.087z"/>
</g>
<g>
	<path style="fill:#F5EFD8;" d="M393.935,195.205c-4.591-13.384-63.51-27.938-109.159,1.059s-63.664,90.7-56.151,103.949   c7.514,13.249,63.51,27.939,109.158-1.059C383.435,270.158,398.522,208.591,393.935,195.205z"/>
	<path style="fill:#F5EFD8;" d="M211.382,196.264c-45.648-28.996-104.568-14.442-109.158-1.059   c-4.588,13.386,10.501,74.953,56.15,103.949c45.651,28.998,101.646,14.308,109.161,1.059   C275.048,286.964,257.035,225.261,211.382,196.264z"/>
</g>
</svg>